<?xml version="1.0" standalone="no"?>
<!DOCTYPE svg PUBLIC "-//W3C//DTD SVG 20010904//EN"
 "http://www.w3.org/TR/2001/REC-SVG-20010904/DTD/svg10.dtd">
<svg version="1.0" xmlns="http://www.w3.org/2000/svg"
 width="831.000000pt" height="831.000000pt" viewBox="0 0 831.000000 831.000000"
 preserveAspectRatio="xMidYMid meet">
<metadata>
Created by potrace 1.10, written by Peter Selinger 2001-2011
</metadata>
<g transform="translate(0.000000,831.000000) scale(0.100000,-0.100000)"
fill="#000000" stroke="none">
<path d="M0 4155 l0 -4155 4155 0 4155 0 0 4155 0 4155 -4155 0 -4155 0 0
-4155z m3017 1742 c82 -52 77 5 77 -867 1 -719 2 -777 19 -807 9 -18 17 -43
17 -56 0 -14 7 -30 15 -37 8 -7 15 -20 15 -29 0 -22 78 -110 129 -145 114 -79
327 -87 504 -17 59 23 138 113 167 191 39 106 42 175 49 949 l6 753 48 44 c28
25 62 46 82 50 18 3 132 4 252 2 203 -4 220 -5 253 -26 19 -12 45 -37 58 -56
28 -41 26 59 21 -941 -4 -707 -6 -773 -22 -802 -9 -18 -17 -42 -17 -55 0 -13
-7 -36 -15 -52 -8 -15 -15 -36 -15 -45 0 -9 -7 -25 -15 -35 -8 -11 -15 -27
-15 -35 0 -25 -89 -152 -154 -219 -56 -58 -167 -152 -180 -152 -3 0 -28 -13
-56 -30 -28 -16 -59 -30 -69 -30 -9 0 -26 -7 -37 -15 -10 -8 -31 -15 -45 -15
-14 0 -34 -7 -45 -15 -10 -8 -34 -15 -52 -15 -18 0 -43 -6 -55 -12 -12 -7 -58
-15 -102 -19 -44 -3 -117 -12 -161 -18 -104 -16 -364 1 -479 30 -22 6 -64 14
-93 18 -28 4 -57 12 -64 19 -7 7 -23 12 -38 12 -14 0 -34 7 -44 15 -11 8 -27
15 -36 15 -21 0 -96 39 -170 88 -48 31 -186 162 -215 204 -62 88 -129 248
-146 348 -4 25 -12 74 -18 110 -7 42 -11 336 -11 825 0 752 0 761 21 799 26
49 36 59 85 86 37 20 50 21 274 18 l235 -3 42 -28z m2799 8 c60 -29 90 -86 87
-168 -2 -34 -3 -538 -2 -1121 0 -582 -2 -1080 -6 -1107 -8 -58 -55 -110 -112
-123 -21 -4 -123 -11 -228 -15 -231 -9 -283 0 -332 56 -18 20 -35 50 -38 67
-3 17 -4 549 -3 1183 l3 1152 34 35 c63 65 70 67 326 64 206 -3 234 -5 271
-23z m-180 -2964 c191 -8 223 -18 263 -87 19 -32 21 -51 21 -198 0 -133 -3
-166 -15 -176 -8 -7 -15 -19 -15 -26 0 -17 -27 -43 -67 -66 -29 -17 -128 -18
-1688 -18 l-1657 0 -37 27 c-65 47 -73 70 -79 238 -4 140 -3 153 18 200 12 28
31 58 41 68 48 45 36 45 1584 45 803 1 1537 -3 1631 -7z"/>
</g>
</svg>
